<svg xmlns="http://www.w3.org/2000/svg" version="1.1" xmlns:xlink="http://www.w3.org/1999/xlink" xmlns:svgjs="http://svgjs.com/svgjs" width="1440" height="500" preserveAspectRatio="none" viewBox="0 0 1440 500"><g mask="url(&quot;#SvgjsMask1166&quot;)" fill="none"><rect width="1440" height="500" x="0" y="0" fill="#0e2a47"></rect><path d="M-90.4 401.06L-90.4 401.06" stroke="rgba(28, 62, 133, 1)" stroke-width="1.5"></path><path d="M-90.4 401.06L-78.94 521.26" stroke="rgba(28, 62, 133, 1)" stroke-width="1.5"></path><path d="M-90.4 401.06L97.85 496.68" stroke="rgba(28, 62, 133, 1)" stroke-width="1.5"></path><path d="M-90.4 401.06L-65.6 711.03" stroke="rgba(28, 62, 133, 1)" stroke-width="1.5"></path><path d="M-90.4 401.06L72.05 689.22" stroke="rgba(28, 62, 133, 1)" stroke-width="1.5"></path><path d="M-90.4 401.06L259.76 348.27" stroke="rgba(28, 62, 133, 1)" stroke-width="1.5"></path><path d="M-90.4 401.06L244.53 525.49" stroke="rgba(28, 62, 133, 1)" stroke-width="1.5"></path><path d="M-78.94 521.26L-78.94 521.26" stroke="rgba(28, 62, 133, 1)" stroke-width="1.5"></path><path d="M-78.94 521.26L97.85 496.68" stroke="rgba(28, 62, 133, 1)" stroke-width="1.5"></path><path d="M-78.94 521.26L-65.6 711.03" stroke="rgba(28, 62, 133, 1)" stroke-width="1.5"></path><path d="M-78.94 521.26L72.05 689.22" stroke="rgba(28, 62, 133, 1)" stroke-width="1.5"></path><path d="M-78.94 521.26L244.53 525.49" stroke="rgba(28, 62, 133, 1)" stroke-width="1.5"></path><path d="M-78.94 521.26L247.76 686.9" stroke="rgba(28, 62, 133, 1)" stroke-width="1.5"></path><path d="M-65.6 711.03L-65.6 711.03" stroke="rgba(28, 62, 133, 1)" stroke-width="1.5"></path><path d="M-65.6 711.03L72.05 689.22" stroke="rgba(28, 62, 133, 1)" stroke-width="1.5"></path><path d="M-65.6 711.03L97.85 496.68" stroke="rgba(28, 62, 133, 1)" stroke-width="1.5"></path><path d="M97.85 496.68L97.85 496.68" stroke="rgba(28, 62, 133, 1)" stroke-width="1.5"></path><path d="M97.85 496.68L244.53 525.49" stroke="rgba(28, 62, 133, 1)" stroke-width="1.5"></path><path d="M97.85 496.68L72.05 689.22" stroke="rgba(28, 62, 133, 1)" stroke-width="1.5"></path><path d="M72.05 689.22L72.05 689.22" stroke="rgba(28, 62, 133, 1)" stroke-width="1.5"></path><path d="M259.76 348.27L259.76 348.27" stroke="rgba(28, 62, 133, 1)" stroke-width="1.5"></path><path d="M259.76 348.27L244.53 525.49" stroke="rgba(28, 62, 133, 1)" stroke-width="1.5"></path><path d="M259.76 348.27L363.48 507.61" stroke="rgba(28, 62, 133, 1)" stroke-width="1.5"></path><path d="M244.53 525.49L244.53 525.49" stroke="rgba(28, 62, 133, 1)" stroke-width="1.5"></path><path d="M244.53 525.49L363.48 507.61" stroke="rgba(28, 62, 133, 1)" stroke-width="1.5"></path><path d="M244.53 525.49L247.76 686.9" stroke="rgba(28, 62, 133, 1)" stroke-width="1.5"></path><path d="M244.53 525.49L353.22 684.26" stroke="rgba(28, 62, 133, 1)" stroke-width="1.5"></path><path d="M244.53 525.49L72.05 689.22" stroke="rgba(28, 62, 133, 1)" stroke-width="1.5"></path><path d="M247.76 686.9L247.76 686.9" stroke="rgba(28, 62, 133, 1)" stroke-width="1.5"></path><path d="M247.76 686.9L353.22 684.26" stroke="rgba(28, 62, 133, 1)" stroke-width="1.5"></path><path d="M247.76 686.9L72.05 689.22" stroke="rgba(28, 62, 133, 1)" stroke-width="1.5"></path><path d="M247.76 686.9L363.48 507.61" stroke="rgba(28, 62, 133, 1)" stroke-width="1.5"></path><path d="M247.76 686.9L97.85 496.68" stroke="rgba(28, 62, 133, 1)" stroke-width="1.5"></path><path d="M247.76 686.9L545.87 688.35" stroke="rgba(28, 62, 133, 1)" stroke-width="1.5"></path><path d="M363.48 507.61L363.48 507.61" stroke="rgba(28, 62, 133, 1)" stroke-width="1.5"></path><path d="M363.48 507.61L353.22 684.26" stroke="rgba(28, 62, 133, 1)" stroke-width="1.5"></path><path d="M363.48 507.61L551.24 507.54" stroke="rgba(28, 62, 133, 1)" stroke-width="1.5"></path><path d="M353.22 684.26L353.22 684.26" stroke="rgba(28, 62, 133, 1)" stroke-width="1.5"></path><path d="M353.22 684.26L545.87 688.35" stroke="rgba(28, 62, 133, 1)" stroke-width="1.5"></path><path d="M545.29 411.87L545.29 411.87" stroke="rgba(28, 62, 133, 1)" stroke-width="1.5"></path><path d="M545.29 411.87L551.24 507.54" stroke="rgba(28, 62, 133, 1)" stroke-width="1.5"></path><path d="M545.29 411.87L643.97 404.8" stroke="rgba(28, 62, 133, 1)" stroke-width="1.5"></path><path d="M545.29 411.87L656.74 516.31" stroke="rgba(28, 62, 133, 1)" stroke-width="1.5"></path><path d="M545.29 411.87L363.48 507.61" stroke="rgba(28, 62, 133, 1)" stroke-width="1.5"></path><path d="M545.29 411.87L694.78 212.71" stroke="rgba(28, 62, 133, 1)" stroke-width="1.5"></path><path d="M545.29 411.87L545.87 688.35" stroke="rgba(28, 62, 133, 1)" stroke-width="1.5"></path><path d="M551.24 507.54L551.24 507.54" stroke="rgba(28, 62, 133, 1)" stroke-width="1.5"></path><path d="M551.24 507.54L656.74 516.31" stroke="rgba(28, 62, 133, 1)" stroke-width="1.5"></path><path d="M551.24 507.54L643.97 404.8" stroke="rgba(28, 62, 133, 1)" stroke-width="1.5"></path><path d="M551.24 507.54L545.87 688.35" stroke="rgba(28, 62, 133, 1)" stroke-width="1.5"></path><path d="M551.24 507.54L676.28 684.35" stroke="rgba(28, 62, 133, 1)" stroke-width="1.5"></path><path d="M545.87 688.35L545.87 688.35" stroke="rgba(28, 62, 133, 1)" stroke-width="1.5"></path><path d="M545.87 688.35L676.28 684.35" stroke="rgba(28, 62, 133, 1)" stroke-width="1.5"></path><path d="M694.78 212.71L694.78 212.71" stroke="rgba(28, 62, 133, 1)" stroke-width="1.5"></path><path d="M694.78 212.71L851.27 217.21" stroke="rgba(28, 62, 133, 1)" stroke-width="1.5"></path><path d="M694.78 212.71L643.97 404.8" stroke="rgba(28, 62, 133, 1)" stroke-width="1.5"></path><path d="M643.97 404.8L643.97 404.8" stroke="rgba(28, 62, 133, 1)" stroke-width="1.5"></path><path d="M643.97 404.8L656.74 516.31" stroke="rgba(28, 62, 133, 1)" stroke-width="1.5"></path><path d="M643.97 404.8L830.42 411.98" stroke="rgba(28, 62, 133, 1)" stroke-width="1.5"></path><path d="M643.97 404.8L847.14 540.54" stroke="rgba(28, 62, 133, 1)" stroke-width="1.5"></path><path d="M656.74 516.31L656.74 516.31" stroke="rgba(28, 62, 133, 1)" stroke-width="1.5"></path><path d="M656.74 516.31L676.28 684.35" stroke="rgba(28, 62, 133, 1)" stroke-width="1.5"></path><path d="M656.74 516.31L847.14 540.54" stroke="rgba(28, 62, 133, 1)" stroke-width="1.5"></path><path d="M676.28 684.35L676.28 684.35" stroke="rgba(28, 62, 133, 1)" stroke-width="1.5"></path><path d="M841.33 70.18L841.33 70.18" stroke="rgba(28, 62, 133, 1)" stroke-width="1.5"></path><path d="M841.33 70.18L962.2 60.5" stroke="rgba(28, 62, 133, 1)" stroke-width="1.5"></path><path d="M841.33 70.18L851.27 217.21" stroke="rgba(28, 62, 133, 1)" stroke-width="1.5"></path><path d="M841.33 70.18L985.99 -47.6" stroke="rgba(28, 62, 133, 1)" stroke-width="1.5"></path><path d="M841.33 70.18L962.67 226.12" stroke="rgba(28, 62, 133, 1)" stroke-width="1.5"></path><path d="M841.33 70.18L694.78 212.71" stroke="rgba(28, 62, 133, 1)" stroke-width="1.5"></path><path d="M841.33 70.18L1111.14 80.13" stroke="rgba(28, 62, 133, 1)" stroke-width="1.5"></path><path d="M851.27 217.21L851.27 217.21" stroke="rgba(28, 62, 133, 1)" stroke-width="1.5"></path><path d="M851.27 217.21L962.67 226.12" stroke="rgba(28, 62, 133, 1)" stroke-width="1.5"></path><path d="M851.27 217.21L962.2 60.5" stroke="rgba(28, 62, 133, 1)" stroke-width="1.5"></path><path d="M830.42 411.98L830.42 411.98" stroke="rgba(28, 62, 133, 1)" stroke-width="1.5"></path><path d="M830.42 411.98L847.14 540.54" stroke="rgba(28, 62, 133, 1)" stroke-width="1.5"></path><path d="M830.42 411.98L1000.85 382.59" stroke="rgba(28, 62, 133, 1)" stroke-width="1.5"></path><path d="M830.42 411.98L851.27 217.21" stroke="rgba(28, 62, 133, 1)" stroke-width="1.5"></path><path d="M830.42 411.98L656.74 516.31" stroke="rgba(28, 62, 133, 1)" stroke-width="1.5"></path><path d="M830.42 411.98L962.67 226.12" stroke="rgba(28, 62, 133, 1)" stroke-width="1.5"></path><path d="M847.14 540.54L847.14 540.54" stroke="rgba(28, 62, 133, 1)" stroke-width="1.5"></path><path d="M847.14 540.54L851.1 698.58" stroke="rgba(28, 62, 133, 1)" stroke-width="1.5"></path><path d="M851.1 698.58L851.1 698.58" stroke="rgba(28, 62, 133, 1)" stroke-width="1.5"></path><path d="M851.1 698.58L956.94 708.71" stroke="rgba(28, 62, 133, 1)" stroke-width="1.5"></path><path d="M985.99 -47.6L985.99 -47.6" stroke="rgba(28, 62, 133, 1)" stroke-width="1.5"></path><path d="M985.99 -47.6L962.2 60.5" stroke="rgba(28, 62, 133, 1)" stroke-width="1.5"></path><path d="M962.2 60.5L962.2 60.5" stroke="rgba(28, 62, 133, 1)" stroke-width="1.5"></path><path d="M962.67 226.12L962.67 226.12" stroke="rgba(28, 62, 133, 1)" stroke-width="1.5"></path><path d="M962.67 226.12L1095.85 196.31" stroke="rgba(28, 62, 133, 1)" stroke-width="1.5"></path><path d="M962.67 226.12L1000.85 382.59" stroke="rgba(28, 62, 133, 1)" stroke-width="1.5"></path><path d="M1000.85 382.59L1000.85 382.59" stroke="rgba(28, 62, 133, 1)" stroke-width="1.5"></path><path d="M1000.85 382.59L1105.74 341" stroke="rgba(28, 62, 133, 1)" stroke-width="1.5"></path><path d="M1000.85 382.59L1096.18 522.21" stroke="rgba(28, 62, 133, 1)" stroke-width="1.5"></path><path d="M956.94 708.71L956.94 708.71" stroke="rgba(28, 62, 133, 1)" stroke-width="1.5"></path><path d="M956.94 708.71L1101.09 680.91" stroke="rgba(28, 62, 133, 1)" stroke-width="1.5"></path><path d="M956.94 708.71L847.14 540.54" stroke="rgba(28, 62, 133, 1)" stroke-width="1.5"></path><path d="M1099 -84.52L1099 -84.52" stroke="rgba(28, 62, 133, 1)" stroke-width="1.5"></path><path d="M1099 -84.52L985.99 -47.6" stroke="rgba(28, 62, 133, 1)" stroke-width="1.5"></path><path d="M1099 -84.52L1241.28 -52.21" stroke="rgba(28, 62, 133, 1)" stroke-width="1.5"></path><path d="M1099 -84.52L1111.14 80.13" stroke="rgba(28, 62, 133, 1)" stroke-width="1.5"></path><path d="M1099 -84.52L962.2 60.5" stroke="rgba(28, 62, 133, 1)" stroke-width="1.5"></path><path d="M1099 -84.52L1290.74 109.36" stroke="rgba(28, 62, 133, 1)" stroke-width="1.5"></path><path d="M1111.14 80.13L1111.14 80.13" stroke="rgba(28, 62, 133, 1)" stroke-width="1.5"></path><path d="M1111.14 80.13L1095.85 196.31" stroke="rgba(28, 62, 133, 1)" stroke-width="1.5"></path><path d="M1111.14 80.13L962.2 60.5" stroke="rgba(28, 62, 133, 1)" stroke-width="1.5"></path><path d="M1111.14 80.13L985.99 -47.6" stroke="rgba(28, 62, 133, 1)" stroke-width="1.5"></path><path d="M1095.85 196.31L1095.85 196.31" stroke="rgba(28, 62, 133, 1)" stroke-width="1.5"></path><path d="M1105.74 341L1105.74 341" stroke="rgba(28, 62, 133, 1)" stroke-width="1.5"></path><path d="M1105.74 341L1095.85 196.31" stroke="rgba(28, 62, 133, 1)" stroke-width="1.5"></path><path d="M1105.74 341L1256.5 387.79" stroke="rgba(28, 62, 133, 1)" stroke-width="1.5"></path><path d="M1096.18 522.21L1096.18 522.21" stroke="rgba(28, 62, 133, 1)" stroke-width="1.5"></path><path d="M1096.18 522.21L1101.09 680.91" stroke="rgba(28, 62, 133, 1)" stroke-width="1.5"></path><path d="M1096.18 522.21L1258.9 501.44" stroke="rgba(28, 62, 133, 1)" stroke-width="1.5"></path><path d="M1096.18 522.21L1105.74 341" stroke="rgba(28, 62, 133, 1)" stroke-width="1.5"></path><path d="M1096.18 522.21L1256.5 387.79" stroke="rgba(28, 62, 133, 1)" stroke-width="1.5"></path><path d="M1101.09 680.91L1101.09 680.91" stroke="rgba(28, 62, 133, 1)" stroke-width="1.5"></path><path d="M1101.09 680.91L1283.9 696.01" stroke="rgba(28, 62, 133, 1)" stroke-width="1.5"></path><path d="M1101.09 680.91L1258.9 501.44" stroke="rgba(28, 62, 133, 1)" stroke-width="1.5"></path><path d="M1241.28 -52.21L1241.28 -52.21" stroke="rgba(28, 62, 133, 1)" stroke-width="1.5"></path><path d="M1241.28 -52.21L1290.74 109.36" stroke="rgba(28, 62, 133, 1)" stroke-width="1.5"></path><path d="M1241.28 -52.21L1404.07 -98.92" stroke="rgba(28, 62, 133, 1)" stroke-width="1.5"></path><path d="M1290.74 109.36L1290.74 109.36" stroke="rgba(28, 62, 133, 1)" stroke-width="1.5"></path><path d="M1290.74 109.36L1309.42 190.48" stroke="rgba(28, 62, 133, 1)" stroke-width="1.5"></path><path d="M1290.74 109.36L1421.82 200.89" stroke="rgba(28, 62, 133, 1)" stroke-width="1.5"></path><path d="M1309.42 190.48L1309.42 190.48" stroke="rgba(28, 62, 133, 1)" stroke-width="1.5"></path><path d="M1309.42 190.48L1421.82 200.89" stroke="rgba(28, 62, 133, 1)" stroke-width="1.5"></path><path d="M1309.42 190.48L1458.51 88.76" stroke="rgba(28, 62, 133, 1)" stroke-width="1.5"></path><path d="M1309.42 190.48L1256.5 387.79" stroke="rgba(28, 62, 133, 1)" stroke-width="1.5"></path><path d="M1256.5 387.79L1256.5 387.79" stroke="rgba(28, 62, 133, 1)" stroke-width="1.5"></path><path d="M1256.5 387.79L1258.9 501.44" stroke="rgba(28, 62, 133, 1)" stroke-width="1.5"></path><path d="M1256.5 387.79L1442.32 372.55" stroke="rgba(28, 62, 133, 1)" stroke-width="1.5"></path><path d="M1256.5 387.79L1414.75 517.14" stroke="rgba(28, 62, 133, 1)" stroke-width="1.5"></path><path d="M1258.9 501.44L1258.9 501.44" stroke="rgba(28, 62, 133, 1)" stroke-width="1.5"></path><path d="M1258.9 501.44L1414.75 517.14" stroke="rgba(28, 62, 133, 1)" stroke-width="1.5"></path><path d="M1258.9 501.44L1283.9 696.01" stroke="rgba(28, 62, 133, 1)" stroke-width="1.5"></path><path d="M1258.9 501.44L1422.92 642.29" stroke="rgba(28, 62, 133, 1)" stroke-width="1.5"></path><path d="M1258.9 501.44L1105.74 341" stroke="rgba(28, 62, 133, 1)" stroke-width="1.5"></path><path d="M1283.9 696.01L1283.9 696.01" stroke="rgba(28, 62, 133, 1)" stroke-width="1.5"></path><path d="M1283.9 696.01L1422.92 642.29" stroke="rgba(28, 62, 133, 1)" stroke-width="1.5"></path><path d="M1404.07 -98.92L1404.07 -98.92" stroke="rgba(28, 62, 133, 1)" stroke-width="1.5"></path><path d="M1404.07 -98.92L1458.51 88.76" stroke="rgba(28, 62, 133, 1)" stroke-width="1.5"></path><path d="M1404.07 -98.92L1601.2 -96.75" stroke="rgba(28, 62, 133, 1)" stroke-width="1.5"></path><path d="M1404.07 -98.92L1290.74 109.36" stroke="rgba(28, 62, 133, 1)" stroke-width="1.5"></path><path d="M1404.07 -98.92L1595.64 94.87" stroke="rgba(28, 62, 133, 1)" stroke-width="1.5"></path><path d="M1404.07 -98.92L1421.82 200.89" stroke="rgba(28, 62, 133, 1)" stroke-width="1.5"></path><path d="M1458.51 88.76L1458.51 88.76" stroke="rgba(28, 62, 133, 1)" stroke-width="1.5"></path><path d="M1458.51 88.76L1421.82 200.89" stroke="rgba(28, 62, 133, 1)" stroke-width="1.5"></path><path d="M1458.51 88.76L1595.64 94.87" stroke="rgba(28, 62, 133, 1)" stroke-width="1.5"></path><path d="M1458.51 88.76L1290.74 109.36" stroke="rgba(28, 62, 133, 1)" stroke-width="1.5"></path><path d="M1421.82 200.89L1421.82 200.89" stroke="rgba(28, 62, 133, 1)" stroke-width="1.5"></path><path d="M1421.82 200.89L1442.32 372.55" stroke="rgba(28, 62, 133, 1)" stroke-width="1.5"></path><path d="M1421.82 200.89L1599.11 219.01" stroke="rgba(28, 62, 133, 1)" stroke-width="1.5"></path><path d="M1421.82 200.89L1595.64 94.87" stroke="rgba(28, 62, 133, 1)" stroke-width="1.5"></path><path d="M1442.32 372.55L1442.32 372.55" stroke="rgba(28, 62, 133, 1)" stroke-width="1.5"></path><path d="M1442.32 372.55L1555.35 396.29" stroke="rgba(28, 62, 133, 1)" stroke-width="1.5"></path><path d="M1442.32 372.55L1414.75 517.14" stroke="rgba(28, 62, 133, 1)" stroke-width="1.5"></path><path d="M1442.32 372.55L1549.39 553.51" stroke="rgba(28, 62, 133, 1)" stroke-width="1.5"></path><path d="M1442.32 372.55L1599.11 219.01" stroke="rgba(28, 62, 133, 1)" stroke-width="1.5"></path><path d="M1414.75 517.14L1414.75 517.14" stroke="rgba(28, 62, 133, 1)" stroke-width="1.5"></path><path d="M1414.75 517.14L1422.92 642.29" stroke="rgba(28, 62, 133, 1)" stroke-width="1.5"></path><path d="M1414.75 517.14L1549.39 553.51" stroke="rgba(28, 62, 133, 1)" stroke-width="1.5"></path><path d="M1414.75 517.14L1555.35 396.29" stroke="rgba(28, 62, 133, 1)" stroke-width="1.5"></path><path d="M1422.92 642.29L1422.92 642.29" stroke="rgba(28, 62, 133, 1)" stroke-width="1.5"></path><path d="M1422.92 642.29L1549.39 553.51" stroke="rgba(28, 62, 133, 1)" stroke-width="1.5"></path><path d="M1422.92 642.29L1597.47 647.4" stroke="rgba(28, 62, 133, 1)" stroke-width="1.5"></path><path d="M1601.2 -96.75L1601.2 -96.75" stroke="rgba(28, 62, 133, 1)" stroke-width="1.5"></path><path d="M1601.2 -96.75L1595.64 94.87" stroke="rgba(28, 62, 133, 1)" stroke-width="1.5"></path><path d="M1601.2 -96.75L1458.51 88.76" stroke="rgba(28, 62, 133, 1)" stroke-width="1.5"></path><path d="M1601.2 -96.75L1599.11 219.01" stroke="rgba(28, 62, 133, 1)" stroke-width="1.5"></path><path d="M1601.2 -96.75L1421.82 200.89" stroke="rgba(28, 62, 133, 1)" stroke-width="1.5"></path><path d="M1595.64 94.87L1595.64 94.87" stroke="rgba(28, 62, 133, 1)" stroke-width="1.5"></path><path d="M1595.64 94.87L1599.11 219.01" stroke="rgba(28, 62, 133, 1)" stroke-width="1.5"></path><path d="M1595.64 94.87L1309.42 190.48" stroke="rgba(28, 62, 133, 1)" stroke-width="1.5"></path><path d="M1599.11 219.01L1599.11 219.01" stroke="rgba(28, 62, 133, 1)" stroke-width="1.5"></path><path d="M1599.11 219.01L1555.35 396.29" stroke="rgba(28, 62, 133, 1)" stroke-width="1.5"></path><path d="M1599.11 219.01L1458.51 88.76" stroke="rgba(28, 62, 133, 1)" stroke-width="1.5"></path><path d="M1599.11 219.01L1309.42 190.48" stroke="rgba(28, 62, 133, 1)" stroke-width="1.5"></path><path d="M1555.35 396.29L1555.35 396.29" stroke="rgba(28, 62, 133, 1)" stroke-width="1.5"></path><path d="M1555.35 396.29L1549.39 553.51" stroke="rgba(28, 62, 133, 1)" stroke-width="1.5"></path><path d="M1555.35 396.29L1421.82 200.89" stroke="rgba(28, 62, 133, 1)" stroke-width="1.5"></path><path d="M1555.35 396.29L1597.47 647.4" stroke="rgba(28, 62, 133, 1)" stroke-width="1.5"></path><path d="M1549.39 553.51L1549.39 553.51" stroke="rgba(28, 62, 133, 1)" stroke-width="1.5"></path><path d="M1549.39 553.51L1597.47 647.4" stroke="rgba(28, 62, 133, 1)" stroke-width="1.5"></path><path d="M1597.47 647.4L1597.47 647.4" stroke="rgba(28, 62, 133, 1)" stroke-width="1.5"></path><path d="M1597.47 647.4L1414.75 517.14" stroke="rgba(28, 62, 133, 1)" stroke-width="1.5"></path><circle r="5" cx="-90.4" cy="401.06" fill="rgba(28, 62, 133, 1)"></circle><circle r="5" cx="-78.94" cy="521.26" fill="rgba(28, 62, 133, 1)"></circle><circle r="5" cx="-65.6" cy="711.03" fill="rgba(28, 62, 133, 1)"></circle><circle r="5" cx="97.85" cy="496.68" fill="rgba(28, 62, 133, 1)"></circle><circle r="5" cx="72.05" cy="689.22" fill="rgba(28, 62, 133, 1)"></circle><circle r="5" cx="259.76" cy="348.27" fill="rgba(28, 62, 133, 1)"></circle><circle r="5" cx="244.53" cy="525.49" fill="rgba(28, 62, 133, 1)"></circle><circle r="5" cx="247.76" cy="686.9" fill="rgba(28, 62, 133, 1)"></circle><circle r="5" cx="363.48" cy="507.61" fill="rgba(28, 62, 133, 1)"></circle><circle r="5" cx="353.22" cy="684.26" fill="rgba(28, 62, 133, 1)"></circle><circle r="5" cx="545.29" cy="411.87" fill="rgba(28, 62, 133, 1)"></circle><circle r="5" cx="551.24" cy="507.54" fill="rgba(28, 62, 133, 1)"></circle><circle r="5" cx="545.87" cy="688.35" fill="rgba(28, 62, 133, 1)"></circle><circle r="5" cx="694.78" cy="212.71" fill="rgba(28, 62, 133, 1)"></circle><circle r="5" cx="643.97" cy="404.8" fill="rgba(28, 62, 133, 1)"></circle><circle r="5" cx="656.74" cy="516.31" fill="rgba(28, 62, 133, 1)"></circle><circle r="5" cx="676.28" cy="684.35" fill="rgba(28, 62, 133, 1)"></circle><circle r="5" cx="841.33" cy="70.18" fill="rgba(28, 62, 133, 1)"></circle><circle r="5" cx="851.27" cy="217.21" fill="rgba(28, 62, 133, 1)"></circle><circle r="5" cx="830.42" cy="411.98" fill="rgba(28, 62, 133, 1)"></circle><circle r="5" cx="847.14" cy="540.54" fill="rgba(28, 62, 133, 1)"></circle><circle r="5" cx="851.1" cy="698.58" fill="rgba(28, 62, 133, 1)"></circle><circle r="5" cx="985.99" cy="-47.6" fill="rgba(28, 62, 133, 1)"></circle><circle r="5" cx="962.2" cy="60.5" fill="rgba(28, 62, 133, 1)"></circle><circle r="5" cx="962.67" cy="226.12" fill="rgba(28, 62, 133, 1)"></circle><circle r="5" cx="1000.85" cy="382.59" fill="rgba(28, 62, 133, 1)"></circle><circle r="5" cx="956.94" cy="708.71" fill="rgba(28, 62, 133, 1)"></circle><circle r="5" cx="1099" cy="-84.52" fill="rgba(28, 62, 133, 1)"></circle><circle r="5" cx="1111.14" cy="80.13" fill="rgba(28, 62, 133, 1)"></circle><circle r="5" cx="1095.85" cy="196.31" fill="rgba(28, 62, 133, 1)"></circle><circle r="5" cx="1105.74" cy="341" fill="rgba(28, 62, 133, 1)"></circle><circle r="5" cx="1096.18" cy="522.21" fill="rgba(28, 62, 133, 1)"></circle><circle r="5" cx="1101.09" cy="680.91" fill="rgba(28, 62, 133, 1)"></circle><circle r="5" cx="1241.28" cy="-52.21" fill="rgba(28, 62, 133, 1)"></circle><circle r="5" cx="1290.74" cy="109.36" fill="rgba(28, 62, 133, 1)"></circle><circle r="5" cx="1309.42" cy="190.48" fill="rgba(28, 62, 133, 1)"></circle><circle r="5" cx="1256.5" cy="387.79" fill="rgba(28, 62, 133, 1)"></circle><circle r="5" cx="1258.9" cy="501.44" fill="rgba(28, 62, 133, 1)"></circle><circle r="5" cx="1283.9" cy="696.01" fill="rgba(28, 62, 133, 1)"></circle><circle r="5" cx="1404.07" cy="-98.92" fill="rgba(28, 62, 133, 1)"></circle><circle r="5" cx="1458.51" cy="88.76" fill="rgba(28, 62, 133, 1)"></circle><circle r="5" cx="1421.82" cy="200.89" fill="rgba(28, 62, 133, 1)"></circle><circle r="5" cx="1442.32" cy="372.55" fill="rgba(28, 62, 133, 1)"></circle><circle r="5" cx="1414.75" cy="517.14" fill="rgba(28, 62, 133, 1)"></circle><circle r="5" cx="1422.92" cy="642.29" fill="rgba(28, 62, 133, 1)"></circle><circle r="5" cx="1601.2" cy="-96.75" fill="rgba(28, 62, 133, 1)"></circle><circle r="5" cx="1595.64" cy="94.87" fill="rgba(28, 62, 133, 1)"></circle><circle r="5" cx="1599.11" cy="219.01" fill="rgba(28, 62, 133, 1)"></circle><circle r="5" cx="1555.35" cy="396.29" fill="rgba(28, 62, 133, 1)"></circle><circle r="5" cx="1549.39" cy="553.51" fill="rgba(28, 62, 133, 1)"></circle><circle r="5" cx="1597.47" cy="647.4" fill="rgba(28, 62, 133, 1)"></circle><path d="M110.13 525.19L110.13 525.19" stroke="hsl(119, 39.7%, 39.8%)" stroke-width="1.5"></path><path d="M110.13 525.19L227.4 513.08" stroke="hsl(119, 39.7%, 39.8%)" stroke-width="1.5"></path><path d="M110.13 525.19L-68.19 516.53" stroke="hsl(119, 39.7%, 39.8%)" stroke-width="1.5"></path><path d="M110.13 525.19L251.72 653.15" stroke="hsl(119, 39.7%, 39.8%)" stroke-width="1.5"></path><path d="M110.13 525.19L-106.42 694.42" stroke="hsl(119, 39.7%, 39.8%)" stroke-width="1.5"></path><path d="M110.13 525.19L389.13 556.22" stroke="hsl(119, 39.7%, 39.8%)" stroke-width="1.5"></path><path d="M409.19 646.53L409.19 646.53" stroke="hsl(119, 39.7%, 39.8%)" stroke-width="1.5"></path><path d="M409.19 646.53L389.13 556.22" stroke="hsl(119, 39.7%, 39.8%)" stroke-width="1.5"></path><path d="M409.19 646.53L251.72 653.15" stroke="hsl(119, 39.7%, 39.8%)" stroke-width="1.5"></path><path d="M409.19 646.53L527.81 514.33" stroke="hsl(119, 39.7%, 39.8%)" stroke-width="1.5"></path><path d="M409.19 646.53L227.4 513.08" stroke="hsl(119, 39.7%, 39.8%)" stroke-width="1.5"></path><path d="M409.19 646.53L363.86 395.68" stroke="hsl(119, 39.7%, 39.8%)" stroke-width="1.5"></path><path d="M409.19 646.53L658.8 710.67" stroke="hsl(119, 39.7%, 39.8%)" stroke-width="1.5"></path><path d="M1420.94 536.36L1420.94 536.36" stroke="hsl(119, 39.7%, 39.8%)" stroke-width="1.5"></path><path d="M1420.94 536.36L1555.35 557.86" stroke="hsl(119, 39.7%, 39.8%)" stroke-width="1.5"></path><path d="M1420.94 536.36L1395.74 696.37" stroke="hsl(119, 39.7%, 39.8%)" stroke-width="1.5"></path><path d="M1420.94 536.36L1426.67 371.8" stroke="hsl(119, 39.7%, 39.8%)" stroke-width="1.5"></path><path d="M1420.94 536.36L1254.54 539.31" stroke="hsl(119, 39.7%, 39.8%)" stroke-width="1.5"></path><path d="M1420.94 536.36L1554.09 693.07" stroke="hsl(119, 39.7%, 39.8%)" stroke-width="1.5"></path><path d="M1395.74 696.37L1395.74 696.37" stroke="hsl(119, 39.7%, 39.8%)" stroke-width="1.5"></path><path d="M1395.74 696.37L1248.69 697.19" stroke="hsl(119, 39.7%, 39.8%)" stroke-width="1.5"></path><path d="M1395.74 696.37L1554.09 693.07" stroke="hsl(119, 39.7%, 39.8%)" stroke-width="1.5"></path><path d="M1547.12 -89.69L1547.12 -89.69" stroke="hsl(119, 39.7%, 39.8%)" stroke-width="1.5"></path><path d="M1547.12 -89.69L1421.09 -72.9" stroke="hsl(119, 39.7%, 39.8%)" stroke-width="1.5"></path><path d="M1547.12 -89.69L1550.28 88.97" stroke="hsl(119, 39.7%, 39.8%)" stroke-width="1.5"></path><path d="M-68.19 516.53L-68.19 516.53" stroke="hsl(119, 39.7%, 39.8%)" stroke-width="1.5"></path><path d="M-68.19 516.53L-106.42 694.42" stroke="hsl(119, 39.7%, 39.8%)" stroke-width="1.5"></path><path d="M-68.19 516.53L227.4 513.08" stroke="hsl(119, 39.7%, 39.8%)" stroke-width="1.5"></path><path d="M-68.19 516.53L251.72 653.15" stroke="hsl(119, 39.7%, 39.8%)" stroke-width="1.5"></path><path d="M-68.19 516.53L363.86 395.68" stroke="hsl(119, 39.7%, 39.8%)" stroke-width="1.5"></path><path d="M-68.19 516.53L389.13 556.22" stroke="hsl(119, 39.7%, 39.8%)" stroke-width="1.5"></path><path d="M-106.42 694.42L-106.42 694.42" stroke="hsl(119, 39.7%, 39.8%)" stroke-width="1.5"></path><path d="M-106.42 694.42L251.72 653.15" stroke="hsl(119, 39.7%, 39.8%)" stroke-width="1.5"></path><path d="M-106.42 694.42L227.4 513.08" stroke="hsl(119, 39.7%, 39.8%)" stroke-width="1.5"></path><path d="M-106.42 694.42L389.13 556.22" stroke="hsl(119, 39.7%, 39.8%)" stroke-width="1.5"></path><path d="M227.4 513.08L227.4 513.08" stroke="hsl(119, 39.7%, 39.8%)" stroke-width="1.5"></path><path d="M227.4 513.08L251.72 653.15" stroke="hsl(119, 39.7%, 39.8%)" stroke-width="1.5"></path><path d="M227.4 513.08L389.13 556.22" stroke="hsl(119, 39.7%, 39.8%)" stroke-width="1.5"></path><path d="M227.4 513.08L363.86 395.68" stroke="hsl(119, 39.7%, 39.8%)" stroke-width="1.5"></path><path d="M251.72 653.15L251.72 653.15" stroke="hsl(119, 39.7%, 39.8%)" stroke-width="1.5"></path><path d="M251.72 653.15L389.13 556.22" stroke="hsl(119, 39.7%, 39.8%)" stroke-width="1.5"></path><path d="M363.86 395.68L363.86 395.68" stroke="hsl(119, 39.7%, 39.8%)" stroke-width="1.5"></path><path d="M363.86 395.68L389.13 556.22" stroke="hsl(119, 39.7%, 39.8%)" stroke-width="1.5"></path><path d="M363.86 395.68L560.16 361.14" stroke="hsl(119, 39.7%, 39.8%)" stroke-width="1.5"></path><path d="M363.86 395.68L527.81 514.33" stroke="hsl(119, 39.7%, 39.8%)" stroke-width="1.5"></path><path d="M389.13 556.22L389.13 556.22" stroke="hsl(119, 39.7%, 39.8%)" stroke-width="1.5"></path><path d="M389.13 556.22L527.81 514.33" stroke="hsl(119, 39.7%, 39.8%)" stroke-width="1.5"></path><path d="M389.13 556.22L560.16 361.14" stroke="hsl(119, 39.7%, 39.8%)" stroke-width="1.5"></path><path d="M560.16 361.14L560.16 361.14" stroke="hsl(119, 39.7%, 39.8%)" stroke-width="1.5"></path><path d="M560.16 361.14L706.27 397.42" stroke="hsl(119, 39.7%, 39.8%)" stroke-width="1.5"></path><path d="M560.16 361.14L527.81 514.33" stroke="hsl(119, 39.7%, 39.8%)" stroke-width="1.5"></path><path d="M560.16 361.14L666.05 501.75" stroke="hsl(119, 39.7%, 39.8%)" stroke-width="1.5"></path><path d="M527.81 514.33L527.81 514.33" stroke="hsl(119, 39.7%, 39.8%)" stroke-width="1.5"></path><path d="M527.81 514.33L666.05 501.75" stroke="hsl(119, 39.7%, 39.8%)" stroke-width="1.5"></path><path d="M706.27 397.42L706.27 397.42" stroke="hsl(119, 39.7%, 39.8%)" stroke-width="1.5"></path><path d="M706.27 397.42L666.05 501.75" stroke="hsl(119, 39.7%, 39.8%)" stroke-width="1.5"></path><path d="M706.27 397.42L814.93 360.99" stroke="hsl(119, 39.7%, 39.8%)" stroke-width="1.5"></path><path d="M706.27 397.42L842.7 548.58" stroke="hsl(119, 39.7%, 39.8%)" stroke-width="1.5"></path><path d="M706.27 397.42L527.81 514.33" stroke="hsl(119, 39.7%, 39.8%)" stroke-width="1.5"></path><path d="M666.05 501.75L666.05 501.75" stroke="hsl(119, 39.7%, 39.8%)" stroke-width="1.5"></path><path d="M666.05 501.75L842.7 548.58" stroke="hsl(119, 39.7%, 39.8%)" stroke-width="1.5"></path><path d="M666.05 501.75L814.93 360.99" stroke="hsl(119, 39.7%, 39.8%)" stroke-width="1.5"></path><path d="M658.8 710.67L658.8 710.67" stroke="hsl(119, 39.7%, 39.8%)" stroke-width="1.5"></path><path d="M658.8 710.67L847.09 694.36" stroke="hsl(119, 39.7%, 39.8%)" stroke-width="1.5"></path><path d="M658.8 710.67L666.05 501.75" stroke="hsl(119, 39.7%, 39.8%)" stroke-width="1.5"></path><path d="M658.8 710.67L527.81 514.33" stroke="hsl(119, 39.7%, 39.8%)" stroke-width="1.5"></path><path d="M658.8 710.67L842.7 548.58" stroke="hsl(119, 39.7%, 39.8%)" stroke-width="1.5"></path><path d="M658.8 710.67L945.54 684.21" stroke="hsl(119, 39.7%, 39.8%)" stroke-width="1.5"></path><path d="M814.93 360.99L814.93 360.99" stroke="hsl(119, 39.7%, 39.8%)" stroke-width="1.5"></path><path d="M814.93 360.99L958.44 372.38" stroke="hsl(119, 39.7%, 39.8%)" stroke-width="1.5"></path><path d="M814.93 360.99L842.7 548.58" stroke="hsl(119, 39.7%, 39.8%)" stroke-width="1.5"></path><path d="M814.93 360.99L951.56 514.51" stroke="hsl(119, 39.7%, 39.8%)" stroke-width="1.5"></path><path d="M842.7 548.58L842.7 548.58" stroke="hsl(119, 39.7%, 39.8%)" stroke-width="1.5"></path><path d="M842.7 548.58L951.56 514.51" stroke="hsl(119, 39.7%, 39.8%)" stroke-width="1.5"></path><path d="M842.7 548.58L847.09 694.36" stroke="hsl(119, 39.7%, 39.8%)" stroke-width="1.5"></path><path d="M842.7 548.58L945.54 684.21" stroke="hsl(119, 39.7%, 39.8%)" stroke-width="1.5"></path><path d="M847.09 694.36L847.09 694.36" stroke="hsl(119, 39.7%, 39.8%)" stroke-width="1.5"></path><path d="M847.09 694.36L945.54 684.21" stroke="hsl(119, 39.7%, 39.8%)" stroke-width="1.5"></path><path d="M958.44 372.38L958.44 372.38" stroke="hsl(119, 39.7%, 39.8%)" stroke-width="1.5"></path><path d="M958.44 372.38L951.56 514.51" stroke="hsl(119, 39.7%, 39.8%)" stroke-width="1.5"></path><path d="M951.56 514.51L951.56 514.51" stroke="hsl(119, 39.7%, 39.8%)" stroke-width="1.5"></path><path d="M945.54 684.21L945.54 684.21" stroke="hsl(119, 39.7%, 39.8%)" stroke-width="1.5"></path><path d="M945.54 684.21L1092.77 682.22" stroke="hsl(119, 39.7%, 39.8%)" stroke-width="1.5"></path><path d="M945.54 684.21L951.56 514.51" stroke="hsl(119, 39.7%, 39.8%)" stroke-width="1.5"></path><path d="M1159.98 -104.47L1159.98 -104.47" stroke="hsl(119, 39.7%, 39.8%)" stroke-width="1.5"></path><path d="M1159.98 -104.47L1248.42 -89.8" stroke="hsl(119, 39.7%, 39.8%)" stroke-width="1.5"></path><path d="M1159.98 -104.47L1251.95 54.65" stroke="hsl(119, 39.7%, 39.8%)" stroke-width="1.5"></path><path d="M1159.98 -104.47L1421.09 -72.9" stroke="hsl(119, 39.7%, 39.8%)" stroke-width="1.5"></path><path d="M1159.98 -104.47L1237.62 205.18" stroke="hsl(119, 39.7%, 39.8%)" stroke-width="1.5"></path><path d="M1159.98 -104.47L1090.95 223.38" stroke="hsl(119, 39.7%, 39.8%)" stroke-width="1.5"></path><path d="M1090.95 223.38L1090.95 223.38" stroke="hsl(119, 39.7%, 39.8%)" stroke-width="1.5"></path><path d="M1090.95 223.38L1237.62 205.18" stroke="hsl(119, 39.7%, 39.8%)" stroke-width="1.5"></path><path d="M1090.95 223.38L1129.62 368.38" stroke="hsl(119, 39.7%, 39.8%)" stroke-width="1.5"></path><path d="M1090.95 223.38L958.44 372.38" stroke="hsl(119, 39.7%, 39.8%)" stroke-width="1.5"></path><path d="M1090.95 223.38L1277.7 360.21" stroke="hsl(119, 39.7%, 39.8%)" stroke-width="1.5"></path><path d="M1090.95 223.38L1251.95 54.65" stroke="hsl(119, 39.7%, 39.8%)" stroke-width="1.5"></path><path d="M1129.62 368.38L1129.62 368.38" stroke="hsl(119, 39.7%, 39.8%)" stroke-width="1.5"></path><path d="M1129.62 368.38L1143.9 493.62" stroke="hsl(119, 39.7%, 39.8%)" stroke-width="1.5"></path><path d="M1129.62 368.38L1277.7 360.21" stroke="hsl(119, 39.7%, 39.8%)" stroke-width="1.5"></path><path d="M1129.62 368.38L958.44 372.38" stroke="hsl(119, 39.7%, 39.8%)" stroke-width="1.5"></path><path d="M1129.62 368.38L1237.62 205.18" stroke="hsl(119, 39.7%, 39.8%)" stroke-width="1.5"></path><path d="M1143.9 493.62L1143.9 493.62" stroke="hsl(119, 39.7%, 39.8%)" stroke-width="1.5"></path><path d="M1143.9 493.62L1254.54 539.31" stroke="hsl(119, 39.7%, 39.8%)" stroke-width="1.5"></path><path d="M1143.9 493.62L1277.7 360.21" stroke="hsl(119, 39.7%, 39.8%)" stroke-width="1.5"></path><path d="M1143.9 493.62L951.56 514.51" stroke="hsl(119, 39.7%, 39.8%)" stroke-width="1.5"></path><path d="M1092.77 682.22L1092.77 682.22" stroke="hsl(119, 39.7%, 39.8%)" stroke-width="1.5"></path><path d="M1092.77 682.22L1248.69 697.19" stroke="hsl(119, 39.7%, 39.8%)" stroke-width="1.5"></path><path d="M1092.77 682.22L1143.9 493.62" stroke="hsl(119, 39.7%, 39.8%)" stroke-width="1.5"></path><path d="M1092.77 682.22L1254.54 539.31" stroke="hsl(119, 39.7%, 39.8%)" stroke-width="1.5"></path><path d="M1248.42 -89.8L1248.42 -89.8" stroke="hsl(119, 39.7%, 39.8%)" stroke-width="1.5"></path><path d="M1248.42 -89.8L1251.95 54.65" stroke="hsl(119, 39.7%, 39.8%)" stroke-width="1.5"></path><path d="M1248.42 -89.8L1421.09 -72.9" stroke="hsl(119, 39.7%, 39.8%)" stroke-width="1.5"></path><path d="M1248.42 -89.8L1452.41 88.12" stroke="hsl(119, 39.7%, 39.8%)" stroke-width="1.5"></path><path d="M1248.42 -89.8L1237.62 205.18" stroke="hsl(119, 39.7%, 39.8%)" stroke-width="1.5"></path><path d="M1248.42 -89.8L1547.12 -89.69" stroke="hsl(119, 39.7%, 39.8%)" stroke-width="1.5"></path><path d="M1251.95 54.65L1251.95 54.65" stroke="hsl(119, 39.7%, 39.8%)" stroke-width="1.5"></path><path d="M1251.95 54.65L1237.62 205.18" stroke="hsl(119, 39.7%, 39.8%)" stroke-width="1.5"></path><path d="M1237.62 205.18L1237.62 205.18" stroke="hsl(119, 39.7%, 39.8%)" stroke-width="1.5"></path><path d="M1237.62 205.18L1389.05 244.07" stroke="hsl(119, 39.7%, 39.8%)" stroke-width="1.5"></path><path d="M1277.7 360.21L1277.7 360.21" stroke="hsl(119, 39.7%, 39.8%)" stroke-width="1.5"></path><path d="M1277.7 360.21L1426.67 371.8" stroke="hsl(119, 39.7%, 39.8%)" stroke-width="1.5"></path><path d="M1277.7 360.21L1237.62 205.18" stroke="hsl(119, 39.7%, 39.8%)" stroke-width="1.5"></path><path d="M1277.7 360.21L1389.05 244.07" stroke="hsl(119, 39.7%, 39.8%)" stroke-width="1.5"></path><path d="M1254.54 539.31L1254.54 539.31" stroke="hsl(119, 39.7%, 39.8%)" stroke-width="1.5"></path><path d="M1254.54 539.31L1248.69 697.19" stroke="hsl(119, 39.7%, 39.8%)" stroke-width="1.5"></path><path d="M1254.54 539.31L1277.7 360.21" stroke="hsl(119, 39.7%, 39.8%)" stroke-width="1.5"></path><path d="M1254.54 539.31L1395.74 696.37" stroke="hsl(119, 39.7%, 39.8%)" stroke-width="1.5"></path><path d="M1248.69 697.19L1248.69 697.19" stroke="hsl(119, 39.7%, 39.8%)" stroke-width="1.5"></path><path d="M1248.69 697.19L1143.9 493.62" stroke="hsl(119, 39.7%, 39.8%)" stroke-width="1.5"></path><path d="M1248.69 697.19L1420.94 536.36" stroke="hsl(119, 39.7%, 39.8%)" stroke-width="1.5"></path><path d="M1421.09 -72.9L1421.09 -72.9" stroke="hsl(119, 39.7%, 39.8%)" stroke-width="1.5"></path><path d="M1421.09 -72.9L1452.41 88.12" stroke="hsl(119, 39.7%, 39.8%)" stroke-width="1.5"></path><path d="M1452.41 88.12L1452.41 88.12" stroke="hsl(119, 39.7%, 39.8%)" stroke-width="1.5"></path><path d="M1452.41 88.12L1550.28 88.97" stroke="hsl(119, 39.7%, 39.8%)" stroke-width="1.5"></path><path d="M1452.41 88.12L1389.05 244.07" stroke="hsl(119, 39.7%, 39.8%)" stroke-width="1.5"></path><path d="M1389.05 244.07L1389.05 244.07" stroke="hsl(119, 39.7%, 39.8%)" stroke-width="1.5"></path><path d="M1389.05 244.07L1426.67 371.8" stroke="hsl(119, 39.7%, 39.8%)" stroke-width="1.5"></path><path d="M1426.67 371.8L1426.67 371.8" stroke="hsl(119, 39.7%, 39.8%)" stroke-width="1.5"></path><path d="M1550.28 88.97L1550.28 88.97" stroke="hsl(119, 39.7%, 39.8%)" stroke-width="1.5"></path><path d="M1550.28 88.97L1578.65 250.08" stroke="hsl(119, 39.7%, 39.8%)" stroke-width="1.5"></path><path d="M1550.28 88.97L1421.09 -72.9" stroke="hsl(119, 39.7%, 39.8%)" stroke-width="1.5"></path><path d="M1578.65 250.08L1578.65 250.08" stroke="hsl(119, 39.7%, 39.8%)" stroke-width="1.5"></path><path d="M1578.65 250.08L1585 409.46" stroke="hsl(119, 39.7%, 39.8%)" stroke-width="1.5"></path><path d="M1578.65 250.08L1389.05 244.07" stroke="hsl(119, 39.7%, 39.8%)" stroke-width="1.5"></path><path d="M1578.65 250.08L1426.67 371.8" stroke="hsl(119, 39.7%, 39.8%)" stroke-width="1.5"></path><path d="M1578.65 250.08L1452.41 88.12" stroke="hsl(119, 39.7%, 39.8%)" stroke-width="1.5"></path><path d="M1585 409.46L1585 409.46" stroke="hsl(119, 39.7%, 39.8%)" stroke-width="1.5"></path><path d="M1585 409.46L1555.35 557.86" stroke="hsl(119, 39.7%, 39.8%)" stroke-width="1.5"></path><path d="M1585 409.46L1426.67 371.8" stroke="hsl(119, 39.7%, 39.8%)" stroke-width="1.5"></path><path d="M1555.35 557.86L1555.35 557.86" stroke="hsl(119, 39.7%, 39.8%)" stroke-width="1.5"></path><path d="M1555.35 557.86L1554.09 693.07" stroke="hsl(119, 39.7%, 39.8%)" stroke-width="1.5"></path><path d="M1554.09 693.07L1554.09 693.07" stroke="hsl(119, 39.7%, 39.8%)" stroke-width="1.5"></path><circle r="25" cx="110.13" cy="525.19" fill="url(#SvgjsRadialGradient1167)"></circle><circle r="25" cx="409.19" cy="646.53" fill="url(#SvgjsRadialGradient1167)"></circle><circle r="25" cx="1420.94" cy="536.36" fill="url(#SvgjsRadialGradient1167)"></circle><circle r="25" cx="1395.74" cy="696.37" fill="url(#SvgjsRadialGradient1167)"></circle><circle r="25" cx="1547.12" cy="-89.69" fill="url(#SvgjsRadialGradient1167)"></circle><circle r="5" cx="-68.19" cy="516.53" fill="#98b697"></circle><circle r="5" cx="-106.42" cy="694.42" fill="#98b697"></circle><circle r="5" cx="227.4" cy="513.08" fill="#98b697"></circle><circle r="5" cx="251.72" cy="653.15" fill="#98b697"></circle><circle r="5" cx="363.86" cy="395.68" fill="#98b697"></circle><circle r="5" cx="389.13" cy="556.22" fill="#98b697"></circle><circle r="5" cx="560.16" cy="361.14" fill="#98b697"></circle><circle r="5" cx="527.81" cy="514.33" fill="#98b697"></circle><circle r="5" cx="706.27" cy="397.42" fill="#98b697"></circle><circle r="5" cx="666.05" cy="501.75" fill="#98b697"></circle><circle r="5" cx="658.8" cy="710.67" fill="#98b697"></circle><circle r="5" cx="814.93" cy="360.99" fill="#98b697"></circle><circle r="5" cx="842.7" cy="548.58" fill="#98b697"></circle><circle r="5" cx="847.09" cy="694.36" fill="#98b697"></circle><circle r="5" cx="958.44" cy="372.38" fill="#98b697"></circle><circle r="5" cx="951.56" cy="514.51" fill="#98b697"></circle><circle r="5" cx="945.54" cy="684.21" fill="#98b697"></circle><circle r="5" cx="1159.98" cy="-104.47" fill="#98b697"></circle><circle r="5" cx="1090.95" cy="223.38" fill="#98b697"></circle><circle r="5" cx="1129.62" cy="368.38" fill="#98b697"></circle><circle r="5" cx="1143.9" cy="493.62" fill="#98b697"></circle><circle r="5" cx="1092.77" cy="682.22" fill="#98b697"></circle><circle r="5" cx="1248.42" cy="-89.8" fill="#98b697"></circle><circle r="5" cx="1251.95" cy="54.65" fill="#98b697"></circle><circle r="5" cx="1237.62" cy="205.18" fill="#98b697"></circle><circle r="5" cx="1277.7" cy="360.21" fill="#98b697"></circle><circle r="5" cx="1254.54" cy="539.31" fill="#98b697"></circle><circle r="5" cx="1248.69" cy="697.19" fill="#98b697"></circle><circle r="5" cx="1421.09" cy="-72.9" fill="#98b697"></circle><circle r="5" cx="1452.41" cy="88.12" fill="#98b697"></circle><circle r="5" cx="1389.05" cy="244.07" fill="#98b697"></circle><circle r="5" cx="1426.67" cy="371.8" fill="#98b697"></circle><circle r="5" cx="1550.28" cy="88.97" fill="#98b697"></circle><circle r="5" cx="1578.65" cy="250.08" fill="#98b697"></circle><circle r="5" cx="1585" cy="409.46" fill="#98b697"></circle><circle r="5" cx="1555.35" cy="557.86" fill="#98b697"></circle><circle r="5" cx="1554.09" cy="693.07" fill="#98b697"></circle></g><defs><mask id="SvgjsMask1166"><rect width="1440" height="500" fill="#ffffff"></rect></mask><radialGradient id="SvgjsRadialGradient1167"><stop stop-color="#ffffff" offset="0.1"></stop><stop stop-color="rgba(48, 109, 47, 1)" offset="0.2"></stop><stop stop-color="rgba(48, 109, 47, 0)" offset="1"></stop></radialGradient></defs></svg>